<svg data-v-0dd9719b="" version="1.0" xmlns="http://www.w3.org/2000/svg" xmlns:xlink="http://www.w3.org/1999/xlink" width="100%" height="100%" viewBox="0 0 340.000000 250.000000" preserveAspectRatio="xMidYMid meet" color-interpolation-filters="sRGB" style="margin: auto;"> <rect data-v-0dd9719b="" x="0" y="0" width="100%" height="100%" fill="#fff" fill-opacity="1" class="background"></rect> <rect data-v-0dd9719b="" x="0" y="0" width="100%" height="100%" fill="url(#watermark)" fill-opacity="1" class="watermarklayer"></rect> <g data-v-0dd9719b="" fill="#333" class="icon-text-wrapper icon-svg-group iconsvg" transform="translate(81.15499877929688,93.5283870698487)"><g class="iconsvg-imagesvg" transform="translate(0,0)"><g><rect fill="#333" fill-opacity="0" stroke-width="2" x="0" y="0" width="60" height="62.94322521085981" class="image-rect"></rect> <svg x="0" y="0" width="60" height="62.94322521085981" filtersec="colorsb9766011066" class="image-svg-svg primary" style="overflow: visible;"><svg xmlns="http://www.w3.org/2000/svg" viewBox="-0.0009527206420898438 0.0028464198112487793 95.31793975830078 99.99372863769531"><path d="M28.32 28.9c-3.09-.5-5.36-.11-6.39 1.32-3 4.14 5.63 15.4 19.2 25.14s27 14.29 30 10.15c1-1.43.67-3.71-.79-6.48 5.31 6.5 7.6 12.08 5.53 15-3.83 5.35-21.15-.52-38.68-13.1S8.54 33.79 12.38 28.44c2.07-2.89 8.08-2.5 15.94.46z" fill="#333"></path><path d="M70.81 78.71c4.54.73 7.87.15 9.38-1.95 4.36-6.07-8.25-22.58-28.19-36.87S12.42 18.93 8.07 25c-1.51 2.1-1 5.44 1.15 9.5C1.43 25-1.93 16.79 1.11 12.56c5.63-7.84 31 .76 56.73 19.21s42 39.77 36.36 47.6c-3.04 4.24-11.86 3.63-23.39-.66z" fill="#ec1b23"></path><path d="M54.21 27.8c2.53-1.75 4.71-2.37 6.23-1.53 4.38 2.41 1.53 16-6.38 30.4S36.19 80.76 31.8 78.35c-1.51-.83-2.16-3-2-6.07-2 8-1.63 13.91 1.43 15.59 5.66 3.12 18.52-9.41 28.73-28s13.89-36.13 8.23-39.24c-3.1-1.63-8.27 1.23-13.98 7.17z" fill="#333"></path><path d="M38.75 88.82c-3.71 2.56-6.91 3.46-9.13 2.24-6.43-3.53-2.25-23.5 9.35-44.6s26.22-35.33 32.65-31.8c2.22 1.23 3.17 4.41 3 8.92C77.48 11.83 77 3.16 72.51.7c-8.3-4.57-27.16 13.81-42.13 41S10 94.74 18.31 99.3c4.48 2.47 12.06-1.77 20.44-10.48z" fill="#ec1b23"></path></svg></svg> <!----></g></g> <g transform="translate(67,8.1968994140625)"><g data-gra="path-name" fill-rule="" class="tp-name iconsvg-namesvg"><g transform="scale(1)"><g><path d="M4.09 0.39Q-0.91 0.58-0.91-3.06L-0.91-3.06Q-0.91-4.62-0.1-5.43 0.72-6.24 2.47-6.37L2.47-6.37 4.55-6.5Q7.21-6.63 8.58-8.19 9.95-9.75 9.95-12.94L9.95-12.94 9.95-41.99Q9.95-43.88 11.08-45.01 12.22-46.15 14.11-46.15L14.11-46.15Q16.05-46.15 17.19-45.01 18.33-43.88 18.33-41.99L18.33-41.99 18.33-12.94Q18.33-0.65 6.17 0.26L6.17 0.26 4.09 0.39ZM63.77-6.31Q65.06-5.07 65.06-3.51L65.06-3.51Q65.06-2.02 63.93-0.88 62.79 0.26 61.23 0.26L61.23 0.26Q59.61 0.26 58.24-1.1L58.24-1.1 36.59-21.39 36.59-3.83Q36.59-1.95 35.46-0.78 34.32 0.39 32.37 0.39L32.37 0.39Q30.48 0.39 29.35-0.78 28.21-1.95 28.21-3.83L28.21-3.83 28.21-41.99Q28.21-43.88 29.35-45.01 30.48-46.15 32.37-46.15L32.37-46.15Q34.32-46.15 35.46-45.01 36.59-43.88 36.59-41.99L36.59-41.99 36.59-25.29 57.53-44.91Q58.7-46.09 60.19-46.09L60.19-46.09Q61.69-46.09 62.82-44.95 63.96-43.81 63.96-42.32L63.96-42.32Q63.96-40.82 62.66-39.59L62.66-39.59 45.17-23.6 63.77-6.31ZM105.82-46.15Q107.64-46.15 108.71-45.01 109.78-43.88 109.78-41.99L109.78-41.99 109.78-3.83Q109.78-1.95 108.68-0.78 107.58 0.39 105.82 0.39L105.82 0.39Q103.74 0.39 102.64-1.1L102.64-1.1 78.91-31.98 78.91-3.83Q78.91-1.95 77.87-0.78 76.83 0.39 75.01 0.39L75.01 0.39Q73.19 0.39 72.15-0.78 71.11-1.95 71.11-3.83L71.11-3.83 71.11-41.99Q71.11-43.88 72.22-45.01 73.32-46.15 75.14-46.15L75.14-46.15Q77.16-46.15 78.26-44.66L78.26-44.66 101.92-13.91 101.92-41.99Q101.92-43.88 102.99-45.01 104.06-46.15 105.82-46.15L105.82-46.15Z" transform="translate(0.9100000262260437, 46.150001525878906)"></path></g> <!----> <!----> <!----> <!----> <!----> <!----> <!----></g></g> <!----></g></g><defs v-gra="od"></defs></svg>